<?xml version="1.0" encoding="UTF-8"?>
<!DOCTYPE svg PUBLIC "-//W3C//DTD SVG 1.0//EN" "http://www.w3.org/TR/2001/REC-SVG-20010904/DTD/svg10.dtd">
<svg color-interpolation="auto" color-rendering="auto" fill="none" fill-opacity="1" height="297.1270833333333mm" image-rendering="auto" shape-rendering="auto" stroke="black" stroke-dasharray="none" stroke-dashoffset="0" stroke-linecap="square" stroke-linejoin="miter" stroke-miterlimit="10" stroke-opacity="1" stroke-width="1mm" text-rendering="auto" viewBox="0, 0, 794, 1123" width="210.07916666666668mm" xmlns="http://www.w3.org/2000/svg" xmlns:xlink="http://www.w3.org/1999/xlink">
	<defs id="genericDefs" />
	<path d="M48.000 48.000 L746.000 48.000" fill="none" />
	<path d="M48.000 48.000 L740.029 139.107" fill="none" />
	<path d="M48.000 48.000 L722.216 228.656" fill="none" />
	<path d="M48.000 48.000 L692.868 315.113" fill="none" />
	<path d="M48.000 48.000 L652.486 397.000" fill="none" />
	<path d="M48.000 48.000 L601.761 472.915" fill="none" />
	<path d="M48.000 48.000 L541.561 541.561" fill="none" />
	<path d="M48.000 48.000 L472.915 601.761" fill="none" />
	<path d="M48.000 48.000 L397.000 652.486" fill="none" />
	<path d="M48.000 48.000 L315.113 692.868" fill="none" />
	<path d="M48.000 48.000 L228.656 722.216" fill="none" />
	<path d="M48.000 48.000 L139.107 740.029" fill="none" />
	<path d="M48.000 48.000 L48.000 746.000" fill="none" />
	<path d="M48.000 48.000 A0 0 0.000 0 1 48.000 48.000" fill="none" />
	<path d="M118.000 48.000 A70 70 0.000 0 1 48.000 118.000" fill="none" />
	<path d="M188.000 48.000 A140 140 0.000 0 1 48.000 188.000" fill="none" />
	<path d="M257.000 48.000 A209 209 0.000 0 1 48.000 257.000" fill="none" />
	<path d="M327.000 48.000 A279 279 0.000 0 1 48.000 327.000" fill="none" />
	<path d="M397.000 48.000 A349 349 0.000 0 1 48.000 397.000" fill="none" />
	<path d="M467.000 48.000 A419 419 0.000 0 1 48.000 467.000" fill="none" />
	<path d="M537.000 48.000 A489 489 0.000 0 1 48.000 537.000" fill="none" />
	<path d="M606.000 48.000 A558 558 0.000 0 1 48.000 606.000" fill="none" />
	<path d="M676.000 48.000 A628 628 0.000 0 1 48.000 676.000" fill="none" />
	<path d="M746.000 48.000 A698 698 0.000 0 1 48.000 746.000" fill="none" />
</svg>
