<?xml version="1.0" encoding="UTF-8"?>
<!DOCTYPE svg PUBLIC "-//W3C//DTD SVG 1.0//EN" "http://www.w3.org/TR/2001/REC-SVG-20010904/DTD/svg10.dtd">
<svg color-interpolation="auto" color-rendering="auto" fill="none" fill-opacity="1" height="297.1270833333333mm" image-rendering="auto" shape-rendering="auto" stroke="black" stroke-dasharray="none" stroke-dashoffset="0" stroke-linecap="square" stroke-linejoin="miter" stroke-miterlimit="10" stroke-opacity="1" stroke-width="1mm" text-rendering="auto" viewBox="0, 0, 794, 1123" width="210.07916666666668mm" xmlns="http://www.w3.org/2000/svg" xmlns:xlink="http://www.w3.org/1999/xlink">
	<defs id="genericDefs" />
	<path d="M48.000 48.000 L746.000 48.000" fill="none" />
	<path d="M48.000 48.000 L732.588 184.173" fill="none" />
	<path d="M48.000 48.000 L692.868 315.113" fill="none" />
	<path d="M48.000 48.000 L628.366 435.788" fill="none" />
	<path d="M48.000 48.000 L541.561 541.561" fill="none" />
	<path d="M48.000 48.000 L435.788 628.366" fill="none" />
	<path d="M48.000 48.000 L315.113 692.868" fill="none" />
	<path d="M48.000 48.000 L184.173 732.588" fill="none" />
	<path d="M48.000 48.000 L48.000 746.000" fill="none" />
	<path d="M48.000 48.000 A0 0 0.000 0 1 48.000 48.000" fill="none" />
	<path d="M164.000 48.000 A116 116 0.000 0 1 48.000 164.000" fill="none" />
	<path d="M281.000 48.000 A233 233 0.000 0 1 48.000 281.000" fill="none" />
	<path d="M397.000 48.000 A349 349 0.000 0 1 48.000 397.000" fill="none" />
	<path d="M513.000 48.000 A465 465 0.000 0 1 48.000 513.000" fill="none" />
	<path d="M630.000 48.000 A582 582 0.000 0 1 48.000 630.000" fill="none" />
	<path d="M746.000 48.000 A698 698 0.000 0 1 48.000 746.000" fill="none" />
</svg>
