<?xml version="1.0" encoding="UTF-8"?>
<!DOCTYPE svg PUBLIC "-//W3C//DTD SVG 1.0//EN" "http://www.w3.org/TR/2001/REC-SVG-20010904/DTD/svg10.dtd">
<svg color-interpolation="auto" color-rendering="auto" fill="none" fill-opacity="1" height="297.1270833333333mm" image-rendering="auto" shape-rendering="auto" stroke="black" stroke-dasharray="none" stroke-dashoffset="0" stroke-linecap="square" stroke-linejoin="miter" stroke-miterlimit="10" stroke-opacity="1" stroke-width="1mm" text-rendering="auto" viewBox="0, 0, 794, 1123" width="210.07916666666668mm" xmlns="http://www.w3.org/2000/svg" xmlns:xlink="http://www.w3.org/1999/xlink">
	<defs id="genericDefs" />
	<path d="M48.000 48.000 L746.000 48.000" fill="none" />
	<path d="M48.000 48.000 L737.406 157.191" fill="none" />
	<path d="M48.000 48.000 L711.837 263.694" fill="none" />
	<path d="M48.000 48.000 L669.923 364.885" fill="none" />
	<path d="M48.000 48.000 L612.694 458.274" fill="none" />
	<path d="M48.000 48.000 L541.561 541.561" fill="none" />
	<path d="M48.000 48.000 L458.274 612.694" fill="none" />
	<path d="M48.000 48.000 L364.885 669.923" fill="none" />
	<path d="M48.000 48.000 L263.694 711.837" fill="none" />
	<path d="M48.000 48.000 L157.191 737.406" fill="none" />
	<path d="M48.000 48.000 L48.000 746.000" fill="none" />
	<path d="M48.000 48.000 A0 0 0.000 0 1 48.000 48.000" fill="none" />
	<path d="M135.000 48.000 A87 87 0.000 0 1 48.000 135.000" fill="none" />
	<path d="M223.000 48.000 A175 175 0.000 0 1 48.000 223.000" fill="none" />
	<path d="M310.000 48.000 A262 262 0.000 0 1 48.000 310.000" fill="none" />
	<path d="M397.000 48.000 A349 349 0.000 0 1 48.000 397.000" fill="none" />
	<path d="M484.000 48.000 A436 436 0.000 0 1 48.000 484.000" fill="none" />
	<path d="M572.000 48.000 A524 524 0.000 0 1 48.000 572.000" fill="none" />
	<path d="M659.000 48.000 A611 611 0.000 0 1 48.000 659.000" fill="none" />
	<path d="M746.000 48.000 A698 698 0.000 0 1 48.000 746.000" fill="none" />
</svg>
