<?xml version="1.0" encoding="UTF-8"?>
<!DOCTYPE svg PUBLIC "-//W3C//DTD SVG 1.0//EN" "http://www.w3.org/TR/2001/REC-SVG-20010904/DTD/svg10.dtd">
<svg color-interpolation="auto" color-rendering="auto" fill="none" fill-opacity="1" height="297.1270833333333mm" image-rendering="auto" shape-rendering="auto" stroke="black" stroke-dasharray="none" stroke-dashoffset="0" stroke-linecap="square" stroke-linejoin="miter" stroke-miterlimit="10" stroke-opacity="1" stroke-width="1mm" text-rendering="auto" viewBox="0, 0, 794, 1123" width="210.07916666666668mm" xmlns="http://www.w3.org/2000/svg" xmlns:xlink="http://www.w3.org/1999/xlink">
	<defs id="genericDefs" />
	<path d="M397.000 561.000 L746.000 561.000" fill="none" />
	<path d="M397.000 561.000 L728.919 668.847" fill="none" />
	<path d="M397.000 561.000 L679.347 766.137" fill="none" />
	<path d="M397.000 561.000 L602.137 843.347" fill="none" />
	<path d="M397.000 561.000 L504.847 892.919" fill="none" />
	<path d="M397.000 561.000 L397.000 910.000" fill="none" />
	<path d="M397.000 561.000 L289.153 892.919" fill="none" />
	<path d="M397.000 561.000 L191.863 843.347" fill="none" />
	<path d="M397.000 561.000 L114.653 766.137" fill="none" />
	<path d="M397.000 561.000 L65.081 668.847" fill="none" />
	<path d="M397.000 561.000 L48.000 561.000" fill="none" />
	<path d="M397.000 561.000 L65.081 453.153" fill="none" />
	<path d="M397.000 561.000 L114.653 355.863" fill="none" />
	<path d="M397.000 561.000 L191.863 278.653" fill="none" />
	<path d="M397.000 561.000 L289.153 229.081" fill="none" />
	<path d="M397.000 561.000 L397.000 212.000" fill="none" />
	<path d="M397.000 561.000 L504.847 229.081" fill="none" />
	<path d="M397.000 561.000 L602.137 278.653" fill="none" />
	<path d="M397.000 561.000 L679.347 355.863" fill="none" />
	<path d="M397.000 561.000 L728.919 453.153" fill="none" />
	<path d="M397.000 561.000 L746.000 561.000" fill="none" />
	<circle cx="397" cy="561" fill="none" r="0" />
	<circle cx="397" cy="561" fill="none" r="44" />
	<circle cx="397" cy="561" fill="none" r="87" />
	<circle cx="397" cy="561" fill="none" r="131" />
	<circle cx="397" cy="561" fill="none" r="175" />
	<circle cx="397" cy="561" fill="none" r="218" />
	<circle cx="397" cy="561" fill="none" r="262" />
	<circle cx="397" cy="561" fill="none" r="305" />
	<circle cx="397" cy="561" fill="none" r="349" />
</svg>
