<?xml version="1.0" encoding="UTF-8"?>
<!DOCTYPE svg PUBLIC "-//W3C//DTD SVG 1.0//EN" "http://www.w3.org/TR/2001/REC-SVG-20010904/DTD/svg10.dtd">
<svg color-interpolation="auto" color-rendering="auto" fill="none" fill-opacity="1" height="297.1270833333333mm" image-rendering="auto" shape-rendering="auto" stroke="black" stroke-dasharray="none" stroke-dashoffset="0" stroke-linecap="square" stroke-linejoin="miter" stroke-miterlimit="10" stroke-opacity="1" stroke-width="1mm" text-rendering="auto" viewBox="0, 0, 794, 1123" width="210.07916666666668mm" xmlns="http://www.w3.org/2000/svg" xmlns:xlink="http://www.w3.org/1999/xlink">
	<defs id="genericDefs" />
	<path d="M397.000 561.000 L746.000 561.000" fill="none" />
	<path d="M397.000 561.000 L724.953 680.365" fill="none" />
	<path d="M397.000 561.000 L664.350 785.333" fill="none" />
	<path d="M397.000 561.000 L571.500 863.243" fill="none" />
	<path d="M397.000 561.000 L457.603 904.698" fill="none" />
	<path d="M397.000 561.000 L336.397 904.698" fill="none" />
	<path d="M397.000 561.000 L222.500 863.243" fill="none" />
	<path d="M397.000 561.000 L129.650 785.333" fill="none" />
	<path d="M397.000 561.000 L69.047 680.365" fill="none" />
	<path d="M397.000 561.000 L48.000 561.000" fill="none" />
	<path d="M397.000 561.000 L69.047 441.635" fill="none" />
	<path d="M397.000 561.000 L129.650 336.667" fill="none" />
	<path d="M397.000 561.000 L222.500 258.757" fill="none" />
	<path d="M397.000 561.000 L336.397 217.302" fill="none" />
	<path d="M397.000 561.000 L457.603 217.302" fill="none" />
	<path d="M397.000 561.000 L571.500 258.757" fill="none" />
	<path d="M397.000 561.000 L664.350 336.667" fill="none" />
	<path d="M397.000 561.000 L724.953 441.635" fill="none" />
	<path d="M397.000 561.000 L746.000 561.000" fill="none" />
	<circle cx="397" cy="561" fill="none" r="0" />
	<circle cx="397" cy="561" fill="none" r="58" />
	<circle cx="397" cy="561" fill="none" r="116" />
	<circle cx="397" cy="561" fill="none" r="175" />
	<circle cx="397" cy="561" fill="none" r="233" />
	<circle cx="397" cy="561" fill="none" r="291" />
	<circle cx="397" cy="561" fill="none" r="349" />
</svg>
