<?xml version="1.0" encoding="UTF-8"?>
<!DOCTYPE svg PUBLIC "-//W3C//DTD SVG 1.0//EN" "http://www.w3.org/TR/2001/REC-SVG-20010904/DTD/svg10.dtd">
<svg color-interpolation="auto" color-rendering="auto" fill="none" fill-opacity="1" height="297.1270833333333mm" image-rendering="auto" shape-rendering="auto" stroke="black" stroke-dasharray="none" stroke-dashoffset="0" stroke-linecap="square" stroke-linejoin="miter" stroke-miterlimit="10" stroke-opacity="1" stroke-width="1mm" text-rendering="auto" viewBox="0, 0, 794, 1123" width="210.07916666666668mm" xmlns="http://www.w3.org/2000/svg" xmlns:xlink="http://www.w3.org/1999/xlink">
	<defs id="genericDefs" />
	<path d="M397.000 561.000 L746.000 561.000" fill="none" />
	<path d="M397.000 561.000 L731.863 659.325" fill="none" />
	<path d="M397.000 561.000 L690.597 749.684" fill="none" />
	<path d="M397.000 561.000 L625.546 824.757" fill="none" />
	<path d="M397.000 561.000 L541.980 878.462" fill="none" />
	<path d="M397.000 561.000 L446.668 906.448" fill="none" />
	<path d="M397.000 561.000 L347.332 906.448" fill="none" />
	<path d="M397.000 561.000 L252.020 878.462" fill="none" />
	<path d="M397.000 561.000 L168.454 824.757" fill="none" />
	<path d="M397.000 561.000 L103.403 749.684" fill="none" />
	<path d="M397.000 561.000 L62.137 659.325" fill="none" />
	<path d="M397.000 561.000 L48.000 561.000" fill="none" />
	<path d="M397.000 561.000 L62.137 462.675" fill="none" />
	<path d="M397.000 561.000 L103.403 372.316" fill="none" />
	<path d="M397.000 561.000 L168.454 297.243" fill="none" />
	<path d="M397.000 561.000 L252.020 243.538" fill="none" />
	<path d="M397.000 561.000 L347.332 215.552" fill="none" />
	<path d="M397.000 561.000 L446.668 215.552" fill="none" />
	<path d="M397.000 561.000 L541.980 243.538" fill="none" />
	<path d="M397.000 561.000 L625.546 297.243" fill="none" />
	<path d="M397.000 561.000 L690.597 372.316" fill="none" />
	<path d="M397.000 561.000 L731.863 462.675" fill="none" />
	<path d="M397.000 561.000 L746.000 561.000" fill="none" />
	<circle cx="397" cy="561" fill="none" r="0" />
	<circle cx="397" cy="561" fill="none" r="35" />
	<circle cx="397" cy="561" fill="none" r="70" />
	<circle cx="397" cy="561" fill="none" r="105" />
	<circle cx="397" cy="561" fill="none" r="140" />
	<circle cx="397" cy="561" fill="none" r="175" />
	<circle cx="397" cy="561" fill="none" r="209" />
	<circle cx="397" cy="561" fill="none" r="244" />
	<circle cx="397" cy="561" fill="none" r="279" />
	<circle cx="397" cy="561" fill="none" r="314" />
	<circle cx="397" cy="561" fill="none" r="349" />
</svg>
