<?xml version="1.0" encoding="UTF-8"?>
<!DOCTYPE svg PUBLIC "-//W3C//DTD SVG 1.0//EN" "http://www.w3.org/TR/2001/REC-SVG-20010904/DTD/svg10.dtd">
<svg color-interpolation="auto" color-rendering="auto" fill="none" fill-opacity="1" height="297.1270833333333mm" image-rendering="auto" shape-rendering="auto" stroke="black" stroke-dasharray="none" stroke-dashoffset="0" stroke-linecap="square" stroke-linejoin="miter" stroke-miterlimit="10" stroke-opacity="1" stroke-width="1mm" text-rendering="auto" viewBox="0, 0, 794, 1123" width="210.07916666666668mm" xmlns="http://www.w3.org/2000/svg" xmlns:xlink="http://www.w3.org/1999/xlink">
	<defs id="genericDefs" />
	<path d="M48.000 561.000 L48.000 48.000" fill="none" />
	<path d="M48.000 561.000 L137.082 55.794" fill="none" />
	<path d="M48.000 561.000 L223.456 78.938" fill="none" />
	<path d="M48.000 561.000 L304.500 116.729" fill="none" />
	<path d="M48.000 561.000 L377.750 168.019" fill="none" />
	<path d="M48.000 561.000 L440.981 231.250" fill="none" />
	<path d="M48.000 561.000 L492.271 304.500" fill="none" />
	<path d="M48.000 561.000 L530.062 385.544" fill="none" />
	<path d="M48.000 561.000 L553.206 471.918" fill="none" />
	<path d="M48.000 561.000 L561.000 561.000" fill="none" />
	<path d="M48.000 561.000 L553.206 650.082" fill="none" />
	<path d="M48.000 561.000 L530.062 736.456" fill="none" />
	<path d="M48.000 561.000 L492.271 817.500" fill="none" />
	<path d="M48.000 561.000 L440.981 890.750" fill="none" />
	<path d="M48.000 561.000 L377.750 953.981" fill="none" />
	<path d="M48.000 561.000 L304.500 1005.271" fill="none" />
	<path d="M48.000 561.000 L223.456 1043.062" fill="none" />
	<path d="M48.000 561.000 L137.082 1066.206" fill="none" />
	<path d="M48.000 561.000 L48.000 1074.000" fill="none" />
	<path d="M48.000 561.000 A0 0 0.000 0 1 48.000 561.000" fill="none" />
	<path d="M48.000 510.000 A51 51 0.000 0 1 48.000 612.000" fill="none" />
	<path d="M48.000 458.000 A103 103 0.000 0 1 48.000 664.000" fill="none" />
	<path d="M48.000 407.000 A154 154 0.000 0 1 48.000 715.000" fill="none" />
	<path d="M48.000 356.000 A205 205 0.000 0 1 48.000 766.000" fill="none" />
	<path d="M48.000 304.000 A257 257 0.000 0 1 48.000 818.000" fill="none" />
	<path d="M48.000 253.000 A308 308 0.000 0 1 48.000 869.000" fill="none" />
	<path d="M48.000 202.000 A359 359 0.000 0 1 48.000 920.000" fill="none" />
	<path d="M48.000 151.000 A410 410 0.000 0 1 48.000 971.000" fill="none" />
	<path d="M48.000 99.000 A462 462 0.000 0 1 48.000 1023.000" fill="none" />
	<path d="M48.000 48.000 A513 513 0.000 0 1 48.000 1074.000" fill="none" />
</svg>
